<svg width="1920" height="1080" viewBox="0 0 1920 1080" fill="none" xmlns="http://www.w3.org/2000/svg">
<g clip-path="url(#clip0_55_514)">
<rect width="1920" height="1080" fill="#141923"/>
<g filter="url(#filter0_f_55_514)">
<path d="M3727 464.986C3726.18 464.166 3725.36 464.167 3724.54 464.167L3585.2 544.503V383.83C3585.2 383.01 3585.2 383.01 3584.38 382.191C3583.56 382.191 3582.74 382.191 3582.74 382.191L3441.77 463.347L3304.07 383.83L3443.41 303.494C3443.41 303.494 3443.41 303.494 3443.41 302.674V141.182L3582.74 221.518C3583.56 222.338 3584.38 221.518 3585.2 220.698C3586.02 219.879 3585.2 219.059 3584.38 218.239L3442.59 136.263C3441.77 136.263 3441.77 136.263 3440.95 136.263L3299.97 217.419L3017.2 54.2877C3016.38 53.468 3015.56 54.2877 3014.74 55.1075C3014.74 55.1075 3014.74 55.9272 3014.74 56.747C3014.74 57.5667 3014.74 57.5668 3015.56 57.5668L3154.9 137.903L2875.4 299.395L2737.7 219.879L2877.04 139.542C2877.86 138.723 2877.86 137.903 2877.86 137.083C2877.04 136.263 2876.22 136.263 2875.4 136.263L2736.06 216.6V56.747C2736.06 55.9272 2736.06 55.9272 2735.24 55.1075L2593.45 -26.8683C2592.63 -27.688 2591.81 -26.8683 2590.99 -26.0485C2590.99 -25.2287 2590.99 -25.2287 2590.99 -24.409C2590.99 -23.5892 2591.81 -23.5892 2591.81 -23.5892L2731.14 56.747L2453.29 217.419V56.747C2453.29 55.9272 2453.29 55.9272 2452.47 55.1075L2310.67 -26.8683C2309.85 -26.8683 2309.85 -26.8683 2309.03 -26.8683C2308.21 -26.8683 2308.21 -26.0485 2308.21 -25.2288V137.083L2170.51 216.6V56.747C2170.51 55.9272 2169.7 55.1075 2168.88 55.1075C2168.06 55.1075 2167.24 55.9272 2167.24 56.747V217.419L2029.54 137.903V-24.409L2170.51 -105.565C2171.33 -106.385 2171.33 -107.204 2171.33 -108.024C2170.51 -108.844 2169.7 -108.844 2168.88 -108.844L2029.54 -28.5078V-188.36C2029.54 -188.36 2029.54 -189.18 2028.72 -190H2027.9H2027.08L1885.28 -108.024C1884.46 -107.204 1884.46 -107.204 1884.46 -106.385V54.2877L1745.12 -26.0485C1744.3 -26.8683 1743.49 -26.0485 1742.67 -25.2288C1741.85 -24.409 1742.67 -23.5892 1743.49 -22.7695L1882.82 57.5668L1745.12 137.083L1604.15 55.9272H1603.33L1463.99 136.263V-25.2288C1463.99 -26.0485 1463.17 -26.8683 1462.35 -26.8683C1461.53 -26.8683 1460.71 -26.0485 1460.71 -25.2288V137.083L1320.55 218.239L1182.86 138.723L1322.19 58.3865C1323.01 57.5667 1323.01 56.747 1323.01 55.9272C1322.19 55.1075 1321.37 55.1075 1320.55 55.1075L1181.22 135.444V-25.2288C1181.22 -25.2288 1181.22 -26.0485 1180.4 -26.0485L1038.6 -108.024C1037.78 -108.844 1036.96 -108.024 1036.14 -107.205C1035.32 -106.385 1036.14 -105.565 1036.96 -104.745L1176.3 -24.409L896.803 137.083L755.826 55.9272H755.006L615.669 136.263V-25.2288C615.669 -26.0485 614.849 -26.8683 614.029 -26.8683C613.21 -26.8683 612.39 -26.0485 612.39 -25.2288V137.083L472.233 218.239L331.256 137.083C330.436 137.083 330.436 137.083 329.616 137.083L187.82 219.059C187 219.879 187 220.698 187 221.518C187.82 222.338 188.639 222.338 189.459 222.338L328.797 142.002V302.674C328.797 302.674 328.797 302.674 328.797 303.494L469.774 384.65V544.503L330.436 464.167C329.616 463.347 328.797 464.166 327.977 464.986C327.157 465.806 327.977 466.626 328.797 467.445L609.112 629.757L469.774 710.094C468.954 710.913 468.954 711.733 468.954 712.553C468.954 713.373 469.774 713.373 469.774 713.373C470.593 713.373 470.593 713.373 471.413 713.373L612.39 632.217L753.367 713.373C754.187 714.192 755.006 713.373 755.826 712.553C756.646 711.733 755.826 710.913 755.006 710.094L615.669 629.757L893.525 469.085V629.757C893.525 630.577 894.344 631.397 895.164 631.397C895.984 631.397 896.803 630.577 896.803 629.757V469.085L1034.5 548.601V710.913C1034.5 711.733 1034.5 711.733 1035.32 712.553L1177.12 794.529C1177.94 795.349 1178.76 794.529 1179.58 793.709C1180.4 792.889 1179.58 792.069 1178.76 791.25L1039.42 710.913L1178.76 630.577L1179.58 629.757V469.085L1317.28 548.601V710.913C1317.28 711.733 1318.1 712.553 1318.91 712.553C1319.73 712.553 1320.55 711.733 1320.55 710.913V550.241L1600.87 712.553C1601.69 713.373 1602.51 712.553 1603.33 711.733C1604.15 710.913 1603.33 710.094 1602.51 709.274L1463.17 628.938L1741.03 468.265V628.938C1741.03 629.757 1741.03 629.758 1741.85 630.577C1742.67 630.577 1742.67 630.577 1743.49 630.577L1884.46 549.421L2022.16 628.938L1741.85 791.25C1741.03 792.069 1741.03 792.889 1741.03 793.709C1741.03 794.529 1741.85 794.529 1741.85 794.529C1742.67 794.529 1742.67 794.529 1743.49 794.529L1882.82 714.193V874.865C1882.82 874.865 1882.82 875.685 1883.64 875.685L2025.44 957.66C2026.26 958.48 2027.08 957.66 2027.9 956.841C2028.72 956.021 2027.9 955.201 2027.08 954.381L1887.74 874.045L2168.88 711.733C2168.88 711.733 2169.7 710.913 2169.7 710.094V549.421L2307.39 628.938V791.25C2307.39 792.069 2308.21 792.889 2309.03 792.889C2309.85 792.889 2310.67 792.069 2310.67 791.25V628.938L2448.37 549.421V710.094C2448.37 710.913 2448.37 710.913 2449.19 711.733C2450.01 711.733 2450.01 711.733 2450.83 711.733L2590.17 631.397V792.069C2590.17 792.889 2590.17 792.889 2590.99 793.709L2732.78 875.685C2733.6 876.505 2734.42 875.685 2735.24 874.865C2736.06 874.045 2735.24 873.225 2734.42 872.406L2595.09 792.069L2734.42 711.733L2735.24 710.913V550.241L3013.1 710.913L2873.76 791.25C2872.94 792.069 2872.94 792.889 2872.94 793.709L2873.76 794.529C2874.58 794.529 2874.58 794.529 2875.4 794.529L3155.72 632.217V792.889C3155.72 793.709 3156.53 794.529 3157.35 794.529C3158.17 794.529 3158.99 793.709 3158.99 792.889V630.577L3296.69 551.061V711.733C3296.69 712.553 3296.69 712.553 3297.51 713.373C3298.33 713.373 3298.33 713.373 3299.15 713.373L3440.13 632.217L3581.1 713.373C3581.92 714.192 3582.74 713.373 3583.56 712.553C3584.38 711.733 3583.56 710.913 3582.74 710.094L3443.41 629.757L3723.72 467.445C3727 466.626 3727 465.806 3727 464.986ZM3445.87 465.806L3581.92 387.109V544.503L3445.87 465.806ZM3444.23 626.478V469.085L3580.29 547.782L3444.23 626.478ZM3302.43 380.551V223.158L3370.46 262.506L3438.49 301.854L3302.43 380.551ZM3304.07 219.879L3440.13 141.182V298.575L3304.07 219.879ZM3438.49 628.938L3302.43 707.634V550.241L3438.49 628.938ZM3304.07 547.782L3440.13 469.085V626.478L3304.07 547.782ZM3302.43 544.503V387.109L3438.49 465.806L3302.43 544.503ZM3160.63 626.478V466.626L3298.33 387.109V546.962L3160.63 626.478ZM3162.27 301.854L3298.33 223.158V380.551L3162.27 301.854ZM3296.69 383.83L3160.63 462.527V305.134L3296.69 383.83ZM3160.63 298.575V141.182L3296.69 219.879L3160.63 298.575ZM3018.84 546.142V384.65L3156.53 305.134V626.478L3018.84 546.142ZM3154.9 628.938L3018.84 707.634V550.241L3154.9 628.938ZM3018.84 380.551V223.158L3154.9 301.854L3018.84 380.551ZM3020.48 219.879L3156.53 141.182V298.575L3020.48 219.879ZM2878.68 628.938L3014.74 550.241V707.634L2878.68 628.938ZM3013.92 547.782L2877.86 626.478V469.085L3013.92 547.782ZM2878.68 465.806L3014.74 387.109V544.503L2878.68 465.806ZM2878.68 301.854L3014.74 223.158V380.551L2878.68 301.854ZM2877.04 462.527V305.134L3013.1 383.83L2877.04 462.527ZM2730.32 710.913L2594.27 789.61V632.217L2730.32 710.913ZM2595.91 628.938L2731.96 550.241V707.634L2595.91 628.938ZM2730.32 547.782L2594.27 626.478V469.085L2730.32 547.782ZM2454.11 219.879L2591.81 140.362L2729.51 219.879L2591.81 299.395L2454.11 219.879ZM2590.17 469.085V628.938L2452.47 708.454V548.601L2590.17 469.085ZM2588.53 465.806L2452.47 544.503V387.109L2588.53 465.806ZM2454.11 383.83L2731.96 223.158V544.503L2454.11 383.83ZM2452.47 380.551V223.158L2588.53 301.854L2452.47 380.551ZM2595.91 138.723L2731.96 60.026V217.419L2595.91 138.723ZM2737.7 547.782L2873.76 469.085V626.478L2737.7 547.782ZM2736.06 380.551V223.158L2872.12 301.854L2736.06 380.551ZM2736.06 544.503V384.65L2873.76 305.134V464.986L2736.06 544.503ZM2446.73 547.782L2310.67 626.478V469.085L2446.73 547.782ZM2312.31 465.806L2448.37 387.109V544.503L2312.31 465.806ZM2312.31 301.854L2448.37 223.158V380.551L2312.31 301.854ZM2446.73 383.83L2310.67 462.527V305.134L2446.73 383.83ZM2310.67 298.575V139.542L2448.37 60.026V219.879L2310.67 298.575ZM2310.67 135.444V-21.9497L2446.73 56.747L2310.67 135.444ZM2171.33 547.782L2307.39 469.085V626.478L2171.33 547.782ZM2168.88 380.551V223.158L2304.93 301.854L2168.88 380.551ZM2168.88 544.503V384.65L2306.57 305.134V464.986L2168.88 544.503ZM2171.33 219.879L2307.39 141.182V298.575L2171.33 219.879ZM2029.54 465.806L2165.6 387.109V544.503L2029.54 465.806ZM2165.6 548.601V708.454L2027.9 628.938V469.085L2165.6 548.601ZM2163.96 710.913L2027.9 789.61V632.217L2163.96 710.913ZM2027.9 301.035V141.182L2165.6 220.698V380.551L2027.9 301.035ZM2163.96 383.83L2027.9 462.527V305.134L2163.96 383.83ZM1887.74 547.782L2023.8 469.085V626.478L1887.74 547.782ZM2022.16 465.806L1886.1 544.503V387.109L2022.16 465.806ZM1887.74 383.83L2023.8 305.134V462.527L1887.74 383.83ZM1886.1 380.551V221.518L2023.8 142.002V301.854L1886.1 380.551ZM1887.74 56.747L2023.8 -21.9497V135.444L1887.74 56.747ZM2022.16 138.723L1886.1 217.419V60.026L2022.16 138.723ZM1886.1 53.468V-103.925L2022.16 -25.2288L1886.1 53.468ZM1887.74 -107.205L2023.8 -185.901V-28.5078L1887.74 -107.205ZM1887.74 710.913L2023.8 632.217V789.61L1887.74 710.913ZM1886.1 871.586V714.193L2022.16 792.889L1886.1 871.586ZM1604.15 219.879L1740.21 141.182V298.575L1604.15 219.879ZM1600.87 218.239L1463.17 138.723L1600.87 59.2063L1738.57 138.723L1600.87 218.239ZM1460.71 298.575V141.182L1596.77 219.879L1460.71 298.575ZM1597.59 547.782L1461.53 626.478V469.085L1597.59 547.782ZM1599.23 387.109V544.503L1463.17 465.806L1599.23 387.109ZM1599.23 223.158V383.01L1461.53 462.527V302.674L1599.23 223.158ZM1745.94 138.723L1882 60.026V217.419L1745.94 138.723ZM1745.94 301.854L1882 223.158V380.551L1745.94 301.854ZM1744.3 298.575V141.182L1880.36 219.879L1744.3 298.575ZM1880.36 547.782L1744.3 626.478V469.085L1880.36 547.782ZM1882 387.109V544.503L1745.94 465.806L1882 387.109ZM1602.51 544.503V223.158L1880.36 383.83L1602.51 544.503ZM1321.37 547.782L1457.43 469.085V626.478L1321.37 547.782ZM1030.4 383.83L894.344 462.527V305.134L1030.4 383.83ZM1034.5 545.322L896.803 465.806L1034.5 386.29L1172.2 465.806L1034.5 545.322ZM1173.84 469.085V626.478L1037.78 547.782L1173.84 469.085ZM1172.2 628.938L1036.14 707.634V550.241L1172.2 628.938ZM1172.2 301.854L1036.14 380.551V223.158L1172.2 301.854ZM1173.84 305.134V462.527L1037.78 383.83L1173.84 305.134ZM1036.14 217.419V60.026L1172.2 138.723L1036.14 217.419ZM1037.78 219.879L1175.48 140.362L1315.64 221.518V381.371L1037.78 219.879ZM1314 383.83L1177.94 462.527V305.134L1314 383.83ZM1455.79 465.806L1318.1 545.322L1180.4 465.806L1318.1 386.29L1455.79 465.806ZM1319.73 380.551V223.158L1455.79 301.854L1319.73 380.551ZM1321.37 383.83L1457.43 305.134V462.527L1321.37 383.83ZM755.006 219.879L1032.86 59.2063V380.551L755.006 219.879ZM889.426 465.806L753.367 544.503V387.109L889.426 465.806ZM891.066 305.134V462.527L755.006 383.83L891.066 305.134ZM889.426 301.854L753.367 380.551V223.158L889.426 301.854ZM752.548 217.419V60.026L888.607 138.723L752.548 217.419ZM1037.78 56.747L1173.84 -21.9497V135.444L1037.78 56.747ZM1321.37 219.879L1457.43 141.182V298.575L1321.37 219.879ZM747.63 547.782L611.57 626.478V469.085L747.63 547.782ZM613.21 465.806L749.269 387.109V544.503L613.21 465.806ZM611.57 462.527V302.674L749.269 223.158V383.01L611.57 462.527ZM611.57 298.575V141.182L747.63 219.879L611.57 298.575ZM613.21 138.723L749.269 60.026V217.419L613.21 138.723ZM471.413 547.782L607.472 469.085V626.478L471.413 547.782ZM605.833 465.806L469.774 544.503V387.109L605.833 465.806ZM471.413 383.83L607.472 305.134V462.527L471.413 383.83ZM469.774 380.551V223.158L605.833 301.854L469.774 380.551ZM471.413 219.879L607.472 141.182V298.575L471.413 219.879ZM327.977 298.575V141.182L464.036 219.879L327.977 298.575ZM329.616 301.854L465.676 223.158V380.551L329.616 301.854Z" fill="url(#paint0_linear_55_514)"/>
</g>
</g>
<defs>
<filter id="filter0_f_55_514" x="167" y="-210" width="3580" height="1188" filterUnits="userSpaceOnUse" color-interpolation-filters="sRGB">
<feFlood flood-opacity="0" result="BackgroundImageFix"/>
<feBlend mode="normal" in="SourceGraphic" in2="BackgroundImageFix" result="shape"/>
<feGaussianBlur stdDeviation="10" result="effect1_foregroundBlur_55_514"/>
</filter>
<linearGradient id="paint0_linear_55_514" x1="174.492" y1="383.829" x2="3722.37" y2="383.829" gradientUnits="userSpaceOnUse">
<stop stop-color="#0096F5"/>
<stop offset="0.582546" stop-color="#8B0CA0"/>
<stop offset="1" stop-color="#FF0000"/>
</linearGradient>
<clipPath id="clip0_55_514">
<rect width="1920" height="1080" fill="white"/>
</clipPath>
</defs>
</svg>
